<svg width="12" height="13" viewBox="0 0 12 13" fill="none" xmlns="http://www.w3.org/2000/svg">
<path fill-rule="evenodd" clip-rule="evenodd" d="M2.91277 12.2H12V0.199951H7.23641C4.59671 0.199951 2.19975 1.79479 1.12263 4.25673L0 6.85802L2.91277 12.2ZM11.3173 11.5032H3.30721L0.758533 6.82705L1.74463 4.55092C2.71555 2.33673 4.86979 0.912209 7.23641 0.912209H11.3173V11.5032Z" fill="#F5A623"/>
<path fill-rule="evenodd" clip-rule="evenodd" d="M7.40052 1.46313H10.7369V6.51577H1.89478L2.74757 4.46263C3.55548 2.4897 5.38075 1.46313 7.40052 1.46313ZM10.0636 5.81V2.18494H7.40052C5.54532 2.18494 4.03424 3.14735 3.36098 4.7674L2.9271 5.81H10.0636Z" fill="#F5A623"/>
<path d="M10.3644 8.41039H9.21463C9.0203 8.41039 8.84216 8.27309 8.84216 8.0946C8.84216 7.91611 9.00411 7.77881 9.21463 7.77881H10.3644C10.5588 7.77881 10.7369 7.91611 10.7369 8.0946C10.7369 8.27309 10.575 8.41039 10.3644 8.41039Z" fill="#F5A623"/>
</svg>
