<svg width="19" height="14" viewBox="0 0 19 14" fill="none" xmlns="http://www.w3.org/2000/svg">
<path fill-rule="evenodd" clip-rule="evenodd" d="M2.24228 0.0283203H16.0981C17.335 0.0283203 18.3404 1.03753 18.3366 2.27439V11.7405C18.3366 12.9774 17.3312 13.9828 16.0943 13.9828H2.24228C1.00542 13.9828 0 12.9774 0 11.7405V2.2706C0 1.03374 1.00542 0.0283203 2.24228 0.0283203ZM16.0981 12.9584C16.7696 12.9584 17.316 12.4121 17.316 11.7405H17.3122V2.27439C17.3122 1.60285 16.7659 1.0565 16.0943 1.0565H2.24228C1.57073 1.0565 1.02439 1.60285 1.02439 2.27439V11.7405C1.02439 12.4121 1.57073 12.9584 2.24228 12.9584H16.0981Z" fill="black"/>
<path d="M11.5642 6.88812L16.0487 2.86644C16.2574 2.67674 16.2764 2.35424 16.0867 2.14178C15.897 1.9331 15.5745 1.91413 15.362 2.10384L9.17775 7.65451L7.97124 6.57701C7.96745 6.57321 7.96365 6.56942 7.96365 6.56562C7.9371 6.53907 7.91054 6.5163 7.88018 6.49354L2.9707 2.10004C2.75823 1.91034 2.43574 1.92931 2.24604 2.14178C2.05634 2.35424 2.07531 2.67674 2.28777 2.86644L6.82544 6.92226L2.30674 11.1526C2.10186 11.3461 2.09048 11.6686 2.28398 11.8773C2.38642 11.9835 2.523 12.0404 2.65959 12.0404C2.78479 12.0404 2.91 11.9949 3.00864 11.9038L7.59563 7.61278L8.84008 8.72443C8.93872 8.8117 9.06013 8.85343 9.18154 8.85343C9.30295 8.85343 9.42815 8.8079 9.523 8.72064L10.8016 7.57484L15.362 11.9076C15.4607 12.0025 15.5897 12.048 15.7149 12.048C15.8515 12.048 15.9843 11.9949 16.0867 11.8887C16.2802 11.6838 16.2726 11.3575 16.0677 11.164L11.5642 6.88812Z" fill="black"/>
</svg>
