<svg width="13" height="18" viewBox="0 0 13 18" fill="none" xmlns="http://www.w3.org/2000/svg">
<path fill-rule="evenodd" clip-rule="evenodd" d="M4 6.5C4 5.12179 5.12179 4 6.5 4C7.87821 4 9 5.12179 9 6.5C9 7.87821 7.87821 9 6.5 9C5.12179 9 4 7.87821 4 6.5ZM4.71429 6.5C4.71429 7.48464 5.51536 8.28571 6.5 8.28571C7.48464 8.28571 8.28571 7.48464 8.28571 6.5C8.28571 5.51536 7.48464 4.71429 6.5 4.71429C5.51536 4.71429 4.71429 5.51536 4.71429 6.5Z" fill="black"/>
<path fill-rule="evenodd" clip-rule="evenodd" d="M6.50066 0C8.23688 0 9.86938 0.655807 11.0971 1.84645C13.3693 4.04956 13.6517 8.19479 11.7009 10.7164L6.50066 18L1.29266 10.7062C-0.650339 8.19479 -0.367974 4.04956 1.90417 1.84645C3.13193 0.655807 4.76409 0 6.50066 0ZM6.50066 16.8449L11.151 10.3322C12.9212 8.04325 12.6686 4.29972 10.6178 2.31127C9.51787 1.24488 8.05587 0.65745 6.50066 0.65745C4.94545 0.65745 3.48345 1.24488 2.38382 2.31127C0.333024 4.29972 0.0804887 8.04325 1.84281 10.322L6.50066 16.8449Z" fill="black"/>
</svg>
