<svg width="20" height="13" viewBox="0 0 20 13" fill="none" xmlns="http://www.w3.org/2000/svg">
<path d="M10.4735 8.71836C10.3816 8.71836 10.2937 8.66836 10.2492 8.58386C10.186 8.46186 10.2356 8.31286 10.3599 8.25136C11.0394 7.91086 11.3694 7.08386 11.3694 5.71886C11.3694 5.58286 11.4836 5.47136 11.622 5.47136C11.8549 5.47136 12.1273 5.40686 12.1273 5.22386V4.23386C12.1273 3.98636 12.1273 3.98636 11.8746 3.98636C11.7362 3.98636 11.622 3.87536 11.622 3.73886V2.74886C11.622 2.11236 11.4639 1.66186 11.1506 1.41036C10.8126 1.13736 10.2639 1.07186 9.5191 1.21436C9.38167 1.24236 9.24929 1.15336 9.22251 1.01836C9.19573 0.884359 9.28517 0.754359 9.42209 0.727859C10.3225 0.553859 11.0116 0.655359 11.4714 1.02686C11.906 1.37686 12.1263 1.95536 12.1263 2.74736V3.51136C12.6315 3.60786 12.6315 4.00536 12.6315 4.23236V5.22236C12.6315 5.54436 12.3935 5.86936 11.8706 5.94736C11.8307 7.38236 11.4103 8.28086 10.5877 8.69086C10.5514 8.70886 10.5119 8.71836 10.4735 8.71836V8.71836Z" fill="#F5A623"/>
<path d="M14.5157 8.71835C14.4237 8.71835 14.3358 8.66835 14.2913 8.58385C14.2282 8.46185 14.2777 8.31285 14.402 8.25135C15.0816 7.91085 15.4115 7.08135 15.4115 5.71035C15.4115 5.64385 15.4398 5.57985 15.4858 5.53435C15.5348 5.48785 15.5924 5.46235 15.6667 5.46285C15.8688 5.46585 16.0345 5.42285 16.1153 5.34635C16.1507 5.31285 16.1679 5.27335 16.1679 5.22335V4.23335C16.1679 3.98585 16.1679 3.98585 15.9153 3.98585C15.7758 3.98585 15.6626 3.87485 15.6626 3.73835V2.74835C15.6626 2.11185 15.5045 1.66135 15.1922 1.40985C14.8547 1.13735 14.306 1.07235 13.5607 1.21485C13.4233 1.24285 13.2909 1.15385 13.2641 1.01885C13.2374 0.884847 13.3268 0.754847 13.4637 0.728347C14.3636 0.554347 15.0533 0.655847 15.5141 1.02735C15.9481 1.37685 16.1684 1.95535 16.1684 2.74735V3.51135C16.6737 3.60785 16.6737 4.00535 16.6737 4.23235V5.22235C16.6737 5.40185 16.6014 5.57085 16.4705 5.69735C16.37 5.79385 16.1972 5.90385 15.9127 5.94235C15.8723 7.38085 15.4519 8.28085 14.6299 8.69085C14.5935 8.70885 14.5541 8.71835 14.5157 8.71835Z" fill="#F5A623"/>
<path fill-rule="evenodd" clip-rule="evenodd" d="M2.78849 5.9484C2.9047 7.3784 4.07337 8.9349 5.55784 8.9349C7.0423 8.9349 8.21098 7.3784 8.32719 5.9489C8.85519 5.8729 9.09468 5.5454 9.09468 5.2229V4.2329C9.09468 3.9229 8.789 3.6999 8.58942 3.5869V2.8339C8.94916 2.3719 9.02698 1.8704 8.8082 1.4119C8.51363 0.797402 7.74512 0.399902 6.8503 0.399902C6.38799 0.399902 5.69224 0.508402 4.96921 1.0154C2.82487 1.0364 2.52626 1.8589 2.52626 2.7474V3.5869C2.32668 3.6999 2.021 3.9229 2.021 4.2324V5.2224C2.021 5.5459 2.261 5.8724 2.78849 5.9484ZM5.20415 1.4614C5.84028 0.992902 6.45064 0.894902 6.85081 0.894902C7.53948 0.894902 8.14276 1.1869 8.35043 1.6234C8.49493 1.9249 8.42319 2.2599 8.14226 2.5894C8.10436 2.6344 8.08365 2.6899 8.08365 2.7479V3.7379C8.08365 3.8354 8.14226 3.9239 8.23321 3.9639C8.39489 4.0354 8.5783 4.1749 8.58891 4.2334V5.2234C8.58891 5.4064 8.31658 5.4709 8.08365 5.4709C7.9442 5.4709 7.83102 5.5824 7.83102 5.7184C7.83102 6.9514 6.81695 8.4409 5.55733 8.4409C4.29771 8.4409 3.28365 6.9519 3.28365 5.7184C3.28365 5.5824 3.17047 5.4709 3.03102 5.4709C2.79809 5.4709 2.52575 5.4059 2.52575 5.2234V4.2349C2.53586 4.1814 2.7026 4.0439 2.88247 3.9649C2.97291 3.9244 3.03152 3.8359 3.03152 3.7389V2.7489C3.03152 2.1974 3.03152 1.5114 5.05258 1.5114C5.10765 1.5114 5.1607 1.4929 5.20415 1.4614Z" fill="#F5A623"/>
<path d="M2.78849 5.9484L3.03767 5.92815L3.02152 5.72939L2.82414 5.70096L2.78849 5.9484ZM8.32719 5.9489L8.29157 5.70145L8.09417 5.72987L8.07801 5.92865L8.32719 5.9489ZM8.58942 3.5869H8.33942V3.73264L8.46624 3.80445L8.58942 3.5869ZM8.58942 2.8339L8.39216 2.68031L8.33942 2.74805V2.8339H8.58942ZM8.8082 1.4119L9.03383 1.30424L9.03363 1.30384L8.8082 1.4119ZM4.96921 1.0154L4.97165 1.26539L5.04922 1.26463L5.11274 1.22009L4.96921 1.0154ZM2.52626 3.5869L2.64943 3.80445L2.77626 3.73265V3.5869H2.52626ZM5.20415 1.4614L5.35089 1.66382L5.35241 1.6627L5.20415 1.4614ZM8.35043 1.6234L8.12467 1.7308L8.12498 1.73145L8.35043 1.6234ZM8.14226 2.5894L7.95201 2.4272L7.95103 2.42837L8.14226 2.5894ZM8.23321 3.9639L8.33432 3.73526L8.33386 3.73506L8.23321 3.9639ZM8.58891 4.2334H8.83891V4.21091L8.8349 4.18879L8.58891 4.2334ZM2.52575 4.2349L2.2801 4.1885L2.27575 4.2115V4.2349H2.52575ZM2.88247 3.9649L2.983 4.1938L2.98464 4.19307L2.88247 3.9649ZM5.55784 8.6849C4.90723 8.6849 4.3079 8.34358 3.84898 7.81415C3.38967 7.28428 3.09124 6.5873 3.03767 5.92815L2.53931 5.96865C2.60196 6.7395 2.94596 7.53577 3.47116 8.14165C3.99674 8.74798 4.72398 9.1849 5.55784 9.1849V8.6849ZM8.07801 5.92865C8.02444 6.58753 7.72602 7.28439 7.26671 7.8142C6.80778 8.34358 6.20845 8.6849 5.55784 8.6849V9.1849C6.39169 9.1849 7.11893 8.74798 7.6445 8.14173C8.1697 7.53591 8.51372 6.73977 8.57636 5.96916L8.07801 5.92865ZM8.84468 5.2229C8.84468 5.40014 8.71847 5.64 8.29157 5.70145L8.3628 6.19635C8.9919 6.1058 9.34468 5.69067 9.34468 5.2229H8.84468ZM8.84468 4.2329V5.2229H9.34468V4.2329H8.84468ZM8.46624 3.80445C8.55508 3.85475 8.65712 3.92409 8.73411 4.00659C8.81139 4.0894 8.84468 4.16455 8.84468 4.2329H9.34468C9.34468 3.99125 9.22513 3.7999 9.09967 3.66546C8.97393 3.53072 8.82333 3.43205 8.71259 3.36935L8.46624 3.80445ZM8.33942 2.8339V3.5869H8.83942V2.8339H8.33942ZM8.58257 1.51956C8.7533 1.87737 8.70492 2.27865 8.39216 2.68031L8.78667 2.9875C9.19341 2.46515 9.30065 1.86344 9.03383 1.30424L8.58257 1.51956ZM6.8503 0.649902C7.68452 0.649902 8.34321 1.02025 8.58276 1.51997L9.03363 1.30384C8.68404 0.57455 7.80573 0.149902 6.8503 0.149902V0.649902ZM5.11274 1.22009C5.78506 0.748654 6.42765 0.649902 6.8503 0.649902V0.149902C6.34832 0.149902 5.59942 0.268151 4.82567 0.810711L5.11274 1.22009ZM2.77626 2.7474C2.77626 2.32513 2.84864 1.98629 3.11403 1.739C3.38789 1.48382 3.92059 1.27568 4.97165 1.26539L4.96676 0.765414C3.87348 0.776121 3.18471 0.989733 2.77318 1.37318C2.35319 1.76452 2.27626 2.28117 2.27626 2.7474H2.77626ZM2.77626 3.5869V2.7474H2.27626V3.5869H2.77626ZM2.271 4.2324C2.271 4.16441 2.30418 4.0894 2.38151 4.00658C2.45853 3.9241 2.56059 3.85476 2.64943 3.80445L2.40308 3.36935C2.29235 3.43205 2.14178 3.5307 2.01606 3.66535C1.89065 3.79965 1.771 3.9909 1.771 4.2324H2.271ZM2.271 5.2224V4.2324H1.771V5.2224H2.271ZM2.82414 5.70096C2.39737 5.63947 2.271 5.40032 2.271 5.2224H1.771C1.771 5.69148 2.12462 6.10534 2.75284 6.19585L2.82414 5.70096ZM6.85081 0.644902C6.40871 0.644902 5.74334 0.75381 5.0559 1.2601L5.35241 1.6627C5.93722 1.232 6.49257 1.1449 6.85081 1.1449V0.644902ZM8.57618 1.516C8.30989 0.956262 7.58816 0.644902 6.85081 0.644902V1.1449C7.4908 1.1449 7.97564 1.41754 8.12467 1.7308L8.57618 1.516ZM8.3325 2.7516C8.65497 2.37337 8.77634 1.93361 8.57587 1.51535L8.12498 1.73145C8.21353 1.91619 8.1914 2.14643 7.95202 2.4272L8.3325 2.7516ZM8.33365 2.7479C8.33365 2.74883 8.33345 2.74987 8.33316 2.75067C8.33287 2.75144 8.33275 2.75131 8.33349 2.75044L7.95103 2.42837C7.87634 2.51707 7.83365 2.6292 7.83365 2.7479H8.33365ZM8.33365 3.7379V2.7479H7.83365V3.7379H8.33365ZM8.33386 3.73506C8.3313 3.73393 8.33365 3.73369 8.33365 3.7379H7.83365C7.83365 3.93712 7.95322 4.11387 8.13256 4.19275L8.33386 3.73506ZM8.8349 4.18879C8.82483 4.13326 8.80006 4.09161 8.78545 4.06962C8.76871 4.04442 8.74995 4.02257 8.7332 4.00485C8.69954 3.96928 8.6592 3.935 8.61881 3.90436C8.53803 3.84308 8.43514 3.77985 8.33432 3.73526L8.1321 4.19254C8.19295 4.21946 8.26261 4.26173 8.31661 4.3027C8.34361 4.32318 8.36122 4.33921 8.36999 4.34848C8.37445 4.35319 8.37302 4.35239 8.36898 4.3463C8.36706 4.34341 8.35034 4.31892 8.34293 4.27802L8.8349 4.18879ZM8.83891 5.2234V4.2334H8.33891V5.2234H8.83891ZM8.08365 5.7209C8.21737 5.7209 8.37884 5.70312 8.51672 5.6478C8.6476 5.59528 8.83891 5.46986 8.83891 5.2234H8.33891C8.33891 5.20036 8.34976 5.17979 8.35854 5.17023C8.36303 5.16534 8.35816 5.17267 8.33053 5.18376C8.27402 5.20643 8.18286 5.2209 8.08365 5.2209V5.7209ZM8.08102 5.7184C8.08102 5.72135 8.07952 5.7227 8.08015 5.72208C8.08079 5.72145 8.0817 5.7209 8.08365 5.7209V5.2209C7.81058 5.2209 7.58102 5.43992 7.58102 5.7184H8.08102ZM5.55733 8.6909C6.28961 8.6909 6.92352 8.25966 7.3636 7.69586C7.80441 7.13113 8.08102 6.39748 8.08102 5.7184H7.58102C7.58102 6.27232 7.35059 6.89993 6.96946 7.3882C6.58761 7.8774 6.08468 8.1909 5.55733 8.1909V8.6909ZM3.03365 5.7184C3.03365 6.39772 3.31024 7.13137 3.75107 7.69605C4.19118 8.25982 4.82509 8.6909 5.55733 8.6909V8.1909C5.02995 8.1909 4.52703 7.87749 4.1452 7.38838C3.76408 6.90019 3.53365 6.27259 3.53365 5.7184H3.03365ZM3.03102 5.7209C3.03297 5.7209 3.03388 5.72145 3.03452 5.72208C3.03514 5.72269 3.03365 5.72135 3.03365 5.7184H3.53365C3.53365 5.43992 3.30409 5.2209 3.03102 5.2209V5.7209ZM2.27575 5.2234C2.27575 5.46975 2.46727 5.5951 2.59781 5.64756C2.73564 5.70295 2.8971 5.7209 3.03102 5.7209V5.2209C2.93201 5.2209 2.84084 5.20636 2.78426 5.18362C2.75658 5.1725 2.75163 5.16513 2.75606 5.16995C2.76477 5.17943 2.77575 5.20005 2.77575 5.2234H2.27575ZM2.27575 4.2349V5.2234H2.77575V4.2349H2.27575ZM2.78194 3.73601C2.67126 3.78462 2.56696 3.84985 2.48688 3.91219C2.44692 3.9433 2.40826 3.97735 2.37625 4.01224C2.36032 4.0296 2.34274 4.05072 2.32705 4.07485C2.3135 4.09567 2.2901 4.13554 2.2801 4.1885L2.77141 4.2813C2.76393 4.32089 2.74795 4.34476 2.74616 4.34752C2.74222 4.35357 2.74073 4.35456 2.74467 4.35027C2.75239 4.34186 2.76854 4.32657 2.79402 4.30674C2.8448 4.26721 2.91381 4.22419 2.983 4.1938L2.78194 3.73601ZM2.78152 3.7389C2.78152 3.73393 2.78397 3.73509 2.7803 3.73673L2.98464 4.19307C3.16185 4.11372 3.28152 3.93788 3.28152 3.7389H2.78152ZM2.78152 2.7489V3.7389H3.28152V2.7489H2.78152ZM5.05258 1.2614C4.0316 1.2614 3.43899 1.43085 3.1118 1.74225C2.77157 2.06606 2.78152 2.48638 2.78152 2.7489H3.28152C3.28152 2.45992 3.29148 2.2615 3.45651 2.10443C3.63458 1.93495 4.0525 1.7614 5.05258 1.7614V1.2614ZM5.05742 1.25899C5.05394 1.26152 5.0517 1.2614 5.05258 1.2614V1.7614C5.1636 1.7614 5.26747 1.72429 5.35089 1.66381L5.05742 1.25899Z" fill="#F5A623"/>
<path d="M0.252632 12.4C0.113179 12.4 0 12.2885 0 12.1525V11.6575C0 10.224 1.16867 9.18248 2.77895 9.18248H3.40194L4.12598 8.12398C4.20379 8.01048 4.36093 7.97998 4.47663 8.05498C4.59234 8.13048 4.62366 8.28548 4.54585 8.39848L3.74653 9.56698C3.69954 9.63548 3.62072 9.67648 3.53634 9.67648H2.77844C1.44 9.67648 0.504758 10.491 0.504758 11.6565V12.1515C0.505263 12.2885 0.392084 12.4 0.252632 12.4Z" fill="#F5A623" stroke="#F5A623" stroke-width="0.5"/>
<path d="M10.8631 12.3998C10.7242 12.3998 10.6105 12.2883 10.6105 12.1523V11.6573C10.6105 10.4913 9.69242 9.67729 8.37823 9.67729H7.62034C7.53697 9.67729 7.45916 9.63729 7.41217 9.56979L6.59213 8.40179C6.51331 8.28879 6.54211 8.13479 6.65731 8.05779C6.77251 7.98129 6.92964 8.00879 7.00847 8.12229L7.75322 9.18329H8.37823C9.98952 9.18329 11.1157 10.2018 11.1157 11.6583V12.1533C11.1157 12.2883 11.0021 12.3998 10.8631 12.3998V12.3998Z" fill="#F5A623" stroke="#F5A623" stroke-width="0.5"/>
<path d="M14.9052 12.3998C14.7663 12.3998 14.6526 12.2883 14.6526 12.1523V11.6573C14.6526 10.4913 13.735 9.67729 12.4203 9.67729H11.6625C11.5791 9.67729 11.5018 9.63729 11.4543 9.56979L10.6342 8.40179C10.5554 8.28879 10.5842 8.13479 10.6994 8.05779C10.8151 7.98129 10.9718 8.00879 11.0506 8.12229L11.7958 9.18329H12.4203C14.0316 9.18329 15.1579 10.2018 15.1579 11.6583V12.1533C15.1579 12.2883 15.0442 12.3998 14.9052 12.3998V12.3998Z" fill="#F5A623"/>
<path d="M18.9473 12.3998C18.8084 12.3998 18.6947 12.2883 18.6947 12.1523V11.6573C18.6947 10.4913 17.7772 9.67729 16.4625 9.67729H15.7046C15.6212 9.67729 15.5439 9.63729 15.4964 9.56979L14.6764 8.40179C14.5975 8.28879 14.6263 8.13479 14.7415 8.05779C14.8572 7.98129 15.0139 8.00879 15.0927 8.12229L15.838 9.18329H16.4625C18.0737 9.18329 19.2 10.2018 19.2 11.6583V12.1533C19.2 12.2883 19.0863 12.3998 18.9473 12.3998V12.3998Z" fill="#F5A623"/>
</svg>
