<svg width="137" height="41" viewBox="0 0 137 41" fill="none" xmlns="http://www.w3.org/2000/svg">
<path fill-rule="evenodd" clip-rule="evenodd" d="M131.202 40.8853H4.76549C2.13837 40.8853 0 38.7102 0 36.0475V4.8306C0 2.16692 2.13837 0 4.76549 0H131.202C133.828 0 136.042 2.16692 136.042 4.8306V36.0475C136.042 38.7102 133.828 40.8853 131.202 40.8853Z" fill="#A6A6A6"/>
<path fill-rule="evenodd" clip-rule="evenodd" d="M134.169 35.1389C134.169 37.3017 132.442 39.0536 130.306 39.0536H3.86862C1.73327 39.0536 0 37.3017 0 35.1389V3.91988C0 1.75807 1.73327 0 3.86862 0H130.305C132.442 0 134.168 1.75807 134.168 3.91988L134.169 35.1389Z" fill="black"/>
<path fill-rule="evenodd" clip-rule="evenodd" d="M30.3605 20.2217C30.3313 16.9274 33.0198 15.3247 33.1428 15.2501C31.6201 12.9983 29.2601 12.6906 28.4307 12.6661C26.4485 12.4545 24.5258 13.8692 23.5161 13.8692C22.4862 13.8692 20.9313 12.6865 19.2555 12.7213C17.0989 12.755 15.0815 14.0214 13.975 15.988C11.6915 19.9979 13.3946 25.8904 15.5823 29.1316C16.6767 30.719 17.9555 32.4914 19.6293 32.429C21.2669 32.3605 21.8785 31.3701 23.8547 31.3701C25.8127 31.3701 26.3871 32.429 28.0941 32.3892C29.8516 32.3605 30.9581 30.7946 32.0141 29.193C33.2788 27.3736 33.7867 25.5818 33.8069 25.4898C33.7656 25.4755 30.3937 24.1702 30.3605 20.2217Z" fill="white"/>
<path fill-rule="evenodd" clip-rule="evenodd" d="M27.1357 10.534C28.0165 9.4168 28.6191 7.89689 28.4518 6.35449C27.1771 6.41173 25.5829 7.24886 24.6648 8.34152C23.8526 9.30436 23.1271 10.8825 23.3145 12.3667C24.7465 12.475 26.2167 11.6338 27.1357 10.534Z" fill="white"/>
<path fill-rule="evenodd" clip-rule="evenodd" d="M54.0589 32.2012H51.7703L50.5167 28.2057H46.1594L44.9652 32.2012H42.7372L47.0542 18.5986H49.7207L54.0589 32.2012ZM50.1389 26.5294L49.0052 22.9774C48.8853 22.6146 48.6605 21.7601 48.329 20.415H48.2887C48.1567 20.9935 47.9441 21.848 47.6518 22.9774L46.5383 26.5294H50.1389Z" fill="white"/>
<path fill-rule="evenodd" clip-rule="evenodd" d="M65.1609 27.1763C65.1609 28.8445 64.7165 30.163 63.8277 31.131C63.0316 31.9926 62.0431 32.4229 60.863 32.4229C59.5893 32.4229 58.6743 31.9589 58.117 31.0308H58.0767V36.1977H55.9282V25.6217C55.9282 24.573 55.901 23.4967 55.8486 22.3928H57.7381L57.858 23.9474H57.8983C58.6148 22.7761 59.7021 22.1914 61.1613 22.1914C62.302 22.1914 63.2543 22.6483 64.0162 23.5631C64.78 24.4789 65.1609 25.683 65.1609 27.1763ZM62.9722 27.2561C62.9722 26.3014 62.7606 25.5144 62.3353 24.8949C61.8707 24.249 61.247 23.926 60.465 23.926C59.9349 23.926 59.4532 24.1059 59.0229 24.4605C58.5916 24.8183 58.3095 25.2854 58.1775 25.8639C58.111 26.1338 58.0777 26.3545 58.0777 26.5283V28.1637C58.0777 28.8772 58.2934 29.4792 58.7247 29.9709C59.156 30.4625 59.7162 30.7078 60.4055 30.7078C61.2147 30.7078 61.8445 30.3909 62.295 29.7593C62.7464 29.1266 62.9722 28.2925 62.9722 27.2561Z" fill="white"/>
<path fill-rule="evenodd" clip-rule="evenodd" d="M76.2831 27.1763C76.2831 28.8445 75.8387 30.163 74.9489 31.131C74.1538 31.9926 73.1652 32.4229 71.9852 32.4229C70.7114 32.4229 69.7964 31.9589 69.2402 31.0308H69.1999V36.1977H67.0514V25.6217C67.0514 24.573 67.0242 23.4967 66.9718 22.3928H68.8613L68.9812 23.9474H69.0215C69.737 22.7761 70.8243 22.1914 72.2845 22.1914C73.4242 22.1914 74.3765 22.6483 75.1403 23.5631C75.9012 24.4789 76.2831 25.683 76.2831 27.1763ZM74.0943 27.2561C74.0943 26.3014 73.8817 25.5144 73.4565 24.8949C72.9919 24.249 72.3701 23.926 71.5871 23.926C71.0561 23.926 70.5754 24.1059 70.1441 24.4605C69.7128 24.8183 69.4316 25.2854 69.2996 25.8639C69.2341 26.1338 69.1999 26.3545 69.1999 26.5283V28.1637C69.1999 28.8772 69.4155 29.4792 69.8448 29.9709C70.2761 30.4615 70.8364 30.7078 71.5277 30.7078C72.3369 30.7078 72.9667 30.3909 73.4172 29.7593C73.8686 29.1266 74.0943 28.2925 74.0943 27.2561Z" fill="white"/>
<path fill-rule="evenodd" clip-rule="evenodd" d="M88.7183 28.3867C88.7183 29.5437 88.3222 30.4851 87.5271 31.2118C86.6535 32.006 85.4371 32.4026 83.8742 32.4026C82.4311 32.4026 81.2743 32.1205 80.3986 31.5553L80.8964 29.7389C81.8396 30.3175 82.8745 30.6078 84.0022 30.6078C84.8113 30.6078 85.4412 30.4217 85.8936 30.0517C86.3441 29.6817 86.5688 29.1849 86.5688 28.5655C86.5688 28.0136 86.3834 27.5485 86.0115 27.1713C85.6417 26.7942 85.024 26.4436 84.1614 26.1196C81.8134 25.2313 80.6404 23.9302 80.6404 22.2191C80.6404 21.1009 81.0516 20.1841 81.8749 19.4706C82.6951 18.7561 83.7895 18.3994 85.158 18.3994C86.3783 18.3994 87.3921 18.6151 88.2013 19.0454L87.6642 20.8219C86.9084 20.4048 86.0539 20.1963 85.0975 20.1963C84.3418 20.1963 83.7512 20.3854 83.328 20.7616C82.9703 21.0978 82.7909 21.5077 82.7909 21.9932C82.7909 22.5309 82.9954 22.9755 83.4066 23.3251C83.7643 23.6481 84.4143 23.9976 85.3575 24.3748C86.5114 24.846 87.3589 25.3969 87.904 26.0286C88.4472 26.6582 88.7183 27.4463 88.7183 28.3867Z" fill="white"/>
<path fill-rule="evenodd" clip-rule="evenodd" d="M95.8217 24.0285H93.4536V28.7907C93.4536 30.0019 93.8708 30.607 94.7072 30.607C95.0911 30.607 95.4096 30.5733 95.6615 30.5058L95.7209 32.1606C95.2977 32.3211 94.7404 32.4019 94.0501 32.4019C93.2016 32.4019 92.5386 32.1392 92.0599 31.6148C91.5833 31.0894 91.3434 30.2084 91.3434 28.9706V24.0265H89.9326V22.3911H91.3434V20.5952L93.4536 19.9492V22.3911H95.8217V24.0285Z" fill="white"/>
<path fill-rule="evenodd" clip-rule="evenodd" d="M106.507 27.2162C106.507 28.7238 106.081 29.9616 105.233 30.9296C104.343 31.9261 103.162 32.4229 101.69 32.4229C100.271 32.4229 99.1412 31.9456 98.2987 30.9909C97.4563 30.0362 97.035 28.8311 97.035 27.3787C97.035 25.8588 97.4684 24.6138 98.338 23.6459C99.2057 22.6769 100.377 22.1924 101.849 22.1924C103.268 22.1924 104.41 22.6697 105.271 23.6254C106.095 24.5525 106.507 25.7494 106.507 27.2162ZM104.277 27.2867C104.277 26.3821 104.087 25.6063 103.701 24.9593C103.251 24.1763 102.607 23.7859 101.772 23.7859C100.909 23.7859 100.253 24.1774 99.8022 24.9593C99.4163 25.6073 99.2258 26.3954 99.2258 27.3276C99.2258 28.2322 99.4163 29.008 99.8022 29.6539C100.267 30.4369 100.916 30.8274 101.753 30.8274C102.573 30.8274 103.217 30.4287 103.682 29.6335C104.078 28.9742 104.277 28.1903 104.277 27.2867Z" fill="white"/>
<path fill-rule="evenodd" clip-rule="evenodd" d="M113.49 24.3093C113.277 24.2694 113.051 24.249 112.813 24.249C112.057 24.249 111.473 24.5382 111.061 25.1178C110.704 25.6288 110.524 26.2748 110.524 27.0547V32.2011H108.377L108.397 25.4816C108.397 24.3512 108.37 23.3219 108.316 22.3938H110.188L110.266 24.2704H110.326C110.553 23.6255 110.91 23.1062 111.4 22.7168C111.879 22.3662 112.396 22.1914 112.953 22.1914C113.151 22.1914 113.331 22.2057 113.49 22.2313V24.3093Z" fill="white"/>
<path fill-rule="evenodd" clip-rule="evenodd" d="M123.099 26.8332C123.099 27.2237 123.073 27.5528 123.02 27.8216H116.575C116.6 28.7906 116.911 29.5317 117.51 30.0427C118.053 30.4996 118.755 30.7286 119.618 30.7286C120.572 30.7286 121.443 30.5742 122.226 30.2645L122.562 31.7773C121.647 32.1821 120.567 32.3834 119.321 32.3834C117.821 32.3834 116.644 31.9357 115.788 31.0414C114.933 30.147 114.505 28.946 114.505 27.4394C114.505 25.9603 114.903 24.7287 115.7 23.7464C116.534 22.6977 117.662 22.1733 119.081 22.1733C120.474 22.1733 121.53 22.6977 122.246 23.7464C122.813 24.5794 123.099 25.6097 123.099 26.8332ZM121.05 26.268C121.064 25.622 120.924 25.0639 120.633 24.5927C120.261 23.9866 119.689 23.6841 118.921 23.6841C118.218 23.6841 117.647 23.9794 117.21 24.5723C116.853 25.0435 116.64 25.6087 116.575 26.267H121.05V26.268Z" fill="white"/>
<path fill-rule="evenodd" clip-rule="evenodd" d="M49.4284 10.2306C49.4284 11.4336 49.0727 12.3392 48.3622 12.9474C47.7042 13.5085 46.769 13.7896 45.5578 13.7896C44.9572 13.7896 44.4432 13.763 44.0129 13.7099V7.13657C44.5742 7.04458 45.1789 6.99756 45.8319 6.99756C46.9857 6.99756 47.8554 7.25207 48.4419 7.76109C49.0989 8.33655 49.4284 9.15937 49.4284 10.2306ZM48.3149 10.2602C48.3149 9.48032 48.1113 8.88237 47.7042 8.46534C47.2971 8.04933 46.7025 7.84082 45.9195 7.84082C45.587 7.84082 45.3038 7.8633 45.069 7.91032V12.9075C45.199 12.928 45.4368 12.9372 45.7825 12.9372C46.5907 12.9372 47.2145 12.7092 47.6538 12.2534C48.0932 11.7975 48.3149 11.1331 48.3149 10.2602Z" fill="white"/>
<path fill-rule="evenodd" clip-rule="evenodd" d="M55.3327 11.2814C55.3327 12.0224 55.1241 12.6296 54.7069 13.1059C54.2695 13.5955 53.6901 13.8398 52.9666 13.8398C52.2692 13.8398 51.714 13.6057 51.2998 13.1355C50.8866 12.6664 50.6801 12.0746 50.6801 11.3611C50.6801 10.615 50.8927 10.0027 51.32 9.52741C51.7472 9.05212 52.3216 8.81396 53.0452 8.81396C53.7425 8.81396 54.3028 9.04803 54.727 9.51719C55.1301 9.97306 55.3327 10.5618 55.3327 11.2814ZM54.2373 11.3161C54.2373 10.8715 54.1426 10.4903 53.9541 10.1724C53.7324 9.78806 53.417 9.5959 53.0069 9.5959C52.5826 9.5959 52.2602 9.78806 52.0385 10.1724C51.849 10.4903 51.7553 10.8776 51.7553 11.3356C51.7553 11.7802 51.85 12.1614 52.0385 12.4793C52.2672 12.8637 52.5856 13.0558 52.9968 13.0558C53.3999 13.0558 53.7163 12.8606 53.944 12.4691C54.1395 12.1451 54.2373 11.7608 54.2373 11.3161Z" fill="white"/>
<path fill-rule="evenodd" clip-rule="evenodd" d="M63.2493 8.91211L61.7629 13.7304H60.7955L60.1798 11.6381C60.0236 11.1158 59.8966 10.5966 59.7979 10.0814H59.7787C59.687 10.6109 59.56 11.1291 59.3968 11.6381L58.7428 13.7304H57.7643L56.3666 8.91211H57.4519L57.989 11.2027C58.119 11.7444 58.2258 12.2606 58.3115 12.7492H58.3306C58.4092 12.3465 58.5392 11.8334 58.7226 11.2129L59.3968 8.91313H60.2574L60.9033 11.1639C61.0595 11.7128 61.1865 12.2412 61.2842 12.7502H61.3135C61.385 12.2545 61.4928 11.726 61.6359 11.1639L62.2123 8.91313H63.2493V8.91211Z" fill="white"/>
<path fill-rule="evenodd" clip-rule="evenodd" d="M68.7242 13.7301H67.6681V10.9703C67.6681 10.1199 67.3497 9.69469 66.7108 9.69469C66.3974 9.69469 66.1444 9.81121 65.9479 10.0453C65.7534 10.2794 65.6547 10.5553 65.6547 10.8712V13.729H64.5986V10.2885C64.5986 9.86539 64.5855 9.40645 64.5603 8.90969H65.4884L65.5378 9.663H65.567C65.69 9.42894 65.8734 9.23575 66.1142 9.08141C66.4004 8.90152 66.7208 8.81055 67.0715 8.81055C67.5149 8.81055 67.8837 8.95569 68.177 9.247C68.5418 9.60372 68.7242 10.1363 68.7242 10.8436V13.7301Z" fill="white"/>
<path fill-rule="evenodd" clip-rule="evenodd" d="M71.6365 13.7304H70.5814V6.70117H71.6365V13.7304Z" fill="white"/>
<path fill-rule="evenodd" clip-rule="evenodd" d="M77.854 11.2814C77.854 12.0224 77.6454 12.6296 77.2282 13.1059C76.7909 13.5955 76.2105 13.8398 75.4879 13.8398C74.7896 13.8398 74.2343 13.6057 73.8212 13.1355C73.408 12.6664 73.2014 12.0746 73.2014 11.3611C73.2014 10.615 73.414 10.0027 73.8413 9.52741C74.2686 9.05212 74.843 8.81396 75.5655 8.81396C76.2639 8.81396 76.8231 9.04803 77.2484 9.51719C77.6515 9.97306 77.854 10.5618 77.854 11.2814ZM76.7576 11.3161C76.7576 10.8715 76.6629 10.4903 76.4745 10.1724C76.2538 9.78806 75.9374 9.5959 75.5282 9.5959C75.103 9.5959 74.7805 9.78806 74.5598 10.1724C74.3704 10.4903 74.2766 10.8776 74.2766 11.3356C74.2766 11.7802 74.3714 12.1614 74.5598 12.4793C74.7886 12.8637 75.107 13.0558 75.5182 13.0558C75.9212 13.0558 76.2367 12.8606 76.4644 12.4691C76.6609 12.1451 76.7576 11.7608 76.7576 11.3161Z" fill="white"/>
<path fill-rule="evenodd" clip-rule="evenodd" d="M82.9652 13.7304H82.0169L81.9383 13.1754H81.9091C81.5846 13.618 81.1221 13.8398 80.5215 13.8398C80.073 13.8398 79.7102 13.6936 79.4372 13.4033C79.1893 13.1396 79.0653 12.8115 79.0653 12.4221C79.0653 11.8333 79.3072 11.3846 79.7939 11.0739C80.2796 10.7632 80.9628 10.6109 81.8426 10.618V10.5281C81.8426 9.89334 81.5141 9.57648 80.856 9.57648C80.3874 9.57648 79.9743 9.69606 79.6175 9.9332L79.4029 9.22997C79.8443 8.95297 80.3894 8.81396 81.0324 8.81396C82.2739 8.81396 82.8966 9.47835 82.8966 10.8071V12.5815C82.8966 13.063 82.9198 13.4463 82.9652 13.7304ZM81.8688 12.0746V11.3315C80.7039 11.311 80.1214 11.635 80.1214 12.3025C80.1214 12.5539 80.1879 12.742 80.3239 12.8677C80.46 12.9935 80.6333 13.0558 80.8399 13.0558C81.0717 13.0558 81.2883 12.9812 81.4858 12.833C81.6844 12.6838 81.8063 12.4947 81.8516 12.2626C81.8627 12.2105 81.8688 12.1471 81.8688 12.0746Z" fill="white"/>
<path fill-rule="evenodd" clip-rule="evenodd" d="M88.9661 13.7304H88.0289L87.9796 12.9566H87.9503C87.651 13.5454 87.1411 13.8397 86.4247 13.8397C85.8523 13.8397 85.3756 13.6118 84.9977 13.1559C84.6198 12.7001 84.4314 12.1082 84.4314 11.3815C84.4314 10.6016 84.636 9.96995 85.0471 9.4875C85.4452 9.03777 85.9329 8.8129 86.5133 8.8129C87.1512 8.8129 87.5976 9.03061 87.8516 9.46706H87.8717V6.70117H88.9288V12.4323C88.9288 12.9014 88.9409 13.3338 88.9661 13.7304ZM87.8717 11.6984V10.895C87.8717 10.756 87.8617 10.6435 87.8425 10.5577C87.7831 10.3001 87.6551 10.0834 87.4606 9.90862C87.2641 9.73384 87.0273 9.64593 86.7542 9.64593C86.3602 9.64593 86.0518 9.80436 85.8251 10.1222C85.6003 10.4401 85.4865 10.8459 85.4865 11.3417C85.4865 11.818 85.5943 12.2043 85.811 12.5018C86.0397 12.8186 86.3481 12.9771 86.734 12.9771C87.0807 12.9771 87.3578 12.8452 87.5684 12.5805C87.772 12.3362 87.8717 12.0418 87.8717 11.6984Z" fill="white"/>
<path fill-rule="evenodd" clip-rule="evenodd" d="M97.9983 11.2814C97.9983 12.0224 97.7897 12.6296 97.3725 13.1059C96.9352 13.5955 96.3568 13.8398 95.6322 13.8398C94.9359 13.8398 94.3806 13.6057 93.9654 13.1355C93.5523 12.6664 93.3457 12.0746 93.3457 11.3611C93.3457 10.615 93.5583 10.0027 93.9856 9.52741C94.4129 9.05212 94.9873 8.81396 95.7118 8.81396C96.4082 8.81396 96.9694 9.04803 97.3927 9.51719C97.7958 9.97306 97.9983 10.5618 97.9983 11.2814ZM96.9039 11.3161C96.9039 10.8715 96.8092 10.4903 96.6208 10.1724C96.3981 9.78806 96.0837 9.5959 95.6725 9.5959C95.2493 9.5959 94.9268 9.78806 94.7041 10.1724C94.5147 10.4903 94.4209 10.8776 94.4209 11.3356C94.4209 11.7802 94.5157 12.1614 94.7041 12.4793C94.9329 12.8637 95.2513 13.0558 95.6624 13.0558C96.0655 13.0558 96.383 12.8606 96.6107 12.4691C96.8052 12.1451 96.9039 11.7608 96.9039 11.3161Z" fill="white"/>
<path fill-rule="evenodd" clip-rule="evenodd" d="M103.677 13.7301H102.622V10.9703C102.622 10.1199 102.303 9.69469 101.663 9.69469C101.35 9.69469 101.097 9.81121 100.902 10.0453C100.706 10.2794 100.608 10.5553 100.608 10.8712V13.729H99.5512V10.2885C99.5512 9.86539 99.5391 9.40645 99.5139 8.90969H100.441L100.49 9.663H100.52C100.644 9.42894 100.827 9.23575 101.067 9.08141C101.354 8.90152 101.673 8.81055 102.025 8.81055C102.468 8.81055 102.836 8.95569 103.13 9.247C103.495 9.60372 103.677 10.1363 103.677 10.8436V13.7301Z" fill="white"/>
<path fill-rule="evenodd" clip-rule="evenodd" d="M110.784 9.71427H109.621V12.055C109.621 12.6498 109.828 12.9473 110.237 12.9473C110.427 12.9473 110.584 12.9309 110.708 12.8972L110.735 13.7098C110.526 13.7895 110.252 13.8294 109.915 13.8294C109.497 13.8294 109.173 13.7006 108.938 13.443C108.702 13.1854 108.585 12.752 108.585 12.1439V9.71427H107.891V8.9119H108.585V8.02877L109.62 7.71191V8.91087H110.783V9.71427H110.784Z" fill="white"/>
<path fill-rule="evenodd" clip-rule="evenodd" d="M116.375 13.7304H115.318V10.9911C115.318 10.1274 114.999 9.695 114.362 9.695C113.872 9.695 113.537 9.94542 113.354 10.4463C113.323 10.5515 113.304 10.6803 113.304 10.8316V13.7294H112.249V6.70117H113.304V9.60505H113.325C113.657 9.07661 114.134 8.8129 114.752 8.8129C115.189 8.8129 115.551 8.95804 115.838 9.24935C116.196 9.6122 116.375 10.1519 116.375 10.8653V13.7304Z" fill="white"/>
<path fill-rule="evenodd" clip-rule="evenodd" d="M122.142 11.0932C122.142 11.2854 122.128 11.4469 122.103 11.5788H118.936C118.95 12.0551 119.101 12.4179 119.394 12.6694C119.662 12.8942 120.008 13.0067 120.431 13.0067C120.9 13.0067 121.327 12.931 121.712 12.7787L121.877 13.5228C121.427 13.7211 120.897 13.8203 120.283 13.8203C119.547 13.8203 118.968 13.6005 118.549 13.161C118.127 12.7215 117.919 12.1317 117.919 11.3917C117.919 10.665 118.113 10.0599 118.505 9.57742C118.914 9.06226 119.468 8.80469 120.166 8.80469C120.849 8.80469 121.368 9.06226 121.719 9.57742C122.002 9.98627 122.142 10.4922 122.142 11.0932ZM121.134 10.8162C121.143 10.4984 121.073 10.2244 120.93 9.99343C120.746 9.69599 120.467 9.54676 120.089 9.54676C119.745 9.54676 119.464 9.6919 119.249 9.98321C119.074 10.2152 118.97 10.4922 118.936 10.8162H121.134Z" fill="white"/>
</svg>
