<svg width="136" height="41" viewBox="0 0 136 41" fill="none" xmlns="http://www.w3.org/2000/svg">
<mask id="mask0_0_120" style="mask-type:alpha" maskUnits="userSpaceOnUse" x="0" y="0" width="135" height="41">
<path fill-rule="evenodd" clip-rule="evenodd" d="M0.834106 40.3043H134.955V0.284668H0.834106V40.3043Z" fill="white"/>
</mask>
<g mask="url(#mask0_0_120)">
<path fill-rule="evenodd" clip-rule="evenodd" d="M129.988 40.3043H5.80121C3.07097 40.3043 0.834106 38.0519 0.834106 35.3017V5.28751C0.834106 2.53702 3.07097 0.284668 5.80121 0.284668H129.988C132.718 0.284668 134.955 2.53702 134.955 5.28751V35.3017C134.955 38.0519 132.718 40.3043 129.988 40.3043Z" fill="black"/>
</g>
<mask id="mask1_0_120" style="mask-type:alpha" maskUnits="userSpaceOnUse" x="0" y="0" width="135" height="41">
<path fill-rule="evenodd" clip-rule="evenodd" d="M134.955 40.3042V0.284668H0.834106V40.3042H134.955Z" fill="white"/>
</mask>
<g mask="url(#mask1_0_120)">
<path fill-rule="evenodd" clip-rule="evenodd" d="M129.988 0.284668H5.80121C3.07097 0.284668 0.834106 2.53702 0.834106 5.28751V35.3017C0.834106 38.0519 3.07097 40.3043 5.80121 40.3043H129.988C132.718 40.3043 134.955 38.0519 134.955 35.3017V5.28751C134.955 2.53702 132.718 0.284668 129.988 0.284668ZM129.988 1.08643C132.288 1.08643 134.158 2.97108 134.158 5.28751V35.3017C134.158 37.6182 132.288 39.5028 129.988 39.5028H5.80121C3.50173 39.5028 1.63079 37.6182 1.63079 35.3017V5.28751C1.63079 2.97108 3.50173 1.08643 5.80121 1.08643H129.988Z" fill="#A6A6A6"/>
</g>
<path fill-rule="evenodd" clip-rule="evenodd" d="M47.943 10.5343C47.943 11.3697 47.6942 12.0382 47.2056 12.5372C46.642 13.129 45.9093 13.4267 45.0123 13.4267C44.1536 13.4267 43.4209 13.1239 42.8199 12.5275C42.2181 11.922 41.917 11.1792 41.917 10.2908C41.917 9.40103 42.2181 8.65879 42.8199 8.05811C43.4209 7.45657 44.1536 7.15381 45.0123 7.15381C45.4389 7.15381 45.8465 7.24239 46.2356 7.40815C46.6227 7.57392 46.9383 7.79864 47.1667 8.07691L46.6479 8.60439C46.2493 8.13017 45.7061 7.89633 45.0123 7.89633C44.3859 7.89633 43.843 8.11735 43.3823 8.5611C42.9264 9.0057 42.698 9.58274 42.698 10.2908C42.698 10.9977 42.9264 11.5796 43.3823 12.0245C43.843 12.4643 44.3859 12.689 45.0123 12.689C45.6762 12.689 46.2356 12.4643 46.6761 12.0194C46.9663 11.7257 47.1318 11.3201 47.1754 10.8026H45.0123V10.0806H47.8985C47.9324 10.2367 47.943 10.3874 47.943 10.5343Z" fill="white"/>
<path fill-rule="evenodd" clip-rule="evenodd" d="M47.943 10.5343C47.943 11.3697 47.6942 12.0382 47.2056 12.5372C46.642 13.129 45.9093 13.4267 45.0123 13.4267C44.1536 13.4267 43.4209 13.1239 42.8199 12.5275C42.2181 11.922 41.917 11.1792 41.917 10.2908C41.917 9.40103 42.2181 8.65879 42.8199 8.05811C43.4209 7.45657 44.1536 7.15381 45.0123 7.15381C45.4389 7.15381 45.8465 7.24239 46.2356 7.40815C46.6227 7.57392 46.9383 7.79864 47.1667 8.07691L46.6479 8.60439C46.2493 8.13017 45.7061 7.89633 45.0123 7.89633C44.3859 7.89633 43.843 8.11735 43.3823 8.5611C42.9264 9.0057 42.698 9.58274 42.698 10.2908C42.698 10.9977 42.9264 11.5796 43.3823 12.0245C43.843 12.4643 44.3859 12.689 45.0123 12.689C45.6762 12.689 46.2356 12.4643 46.6761 12.0194C46.9663 11.7257 47.1318 11.3201 47.1754 10.8026H45.0123V10.0806H47.8985C47.9324 10.2367 47.943 10.3874 47.943 10.5343Z" stroke="white" stroke-width="0.664125"/>
<path fill-rule="evenodd" clip-rule="evenodd" d="M52.5211 8.02719H49.8102V9.92864H52.255V10.6515H49.8102V12.5527H52.5211V13.2895H49.0437V7.2915H52.5211V8.02719Z" fill="white"/>
<path fill-rule="evenodd" clip-rule="evenodd" d="M52.5211 8.02719H49.8102V9.92864H52.255V10.6515H49.8102V12.5527H52.5211V13.2895H49.0437V7.2915H52.5211V8.02719Z" stroke="white" stroke-width="0.664125"/>
<path fill-rule="evenodd" clip-rule="evenodd" d="M55.7529 13.2895H54.9853V8.02719H53.3226V7.2915H57.4167V8.02719H55.7529V13.2895Z" fill="white"/>
<path fill-rule="evenodd" clip-rule="evenodd" d="M55.7529 13.2895H54.9853V8.02719H53.3226V7.2915H57.4167V8.02719H55.7529V13.2895Z" stroke="white" stroke-width="0.664125"/>
<mask id="mask2_0_120" style="mask-type:alpha" maskUnits="userSpaceOnUse" x="0" y="0" width="135" height="41">
<path fill-rule="evenodd" clip-rule="evenodd" d="M0.834106 40.3043H134.955V0.284668H0.834106V40.3043Z" fill="white"/>
</mask>
<g mask="url(#mask2_0_120)">
<path fill-rule="evenodd" clip-rule="evenodd" d="M60.3804 13.2895H61.3122V7.2915H60.3804V13.2895Z" fill="white"/>
<path fill-rule="evenodd" clip-rule="evenodd" d="M60.3804 13.2895H61.3122V7.2915H60.3804V13.2895Z" stroke="white" stroke-width="0.664125"/>
<path fill-rule="evenodd" clip-rule="evenodd" d="M64.5422 13.2895H63.7816V8.02719H62.1119V7.2915H66.2119V8.02719H64.5422V13.2895Z" fill="white"/>
<path fill-rule="evenodd" clip-rule="evenodd" d="M64.5422 13.2895H63.7816V8.02719H62.1119V7.2915H66.2119V8.02719H64.5422V13.2895Z" stroke="white" stroke-width="0.664125"/>
<path fill-rule="evenodd" clip-rule="evenodd" d="M70.1598 12.0145C70.602 12.4643 71.1393 12.689 71.78 12.689C72.4159 12.689 72.9591 12.4643 73.3954 12.0145C73.8366 11.5657 74.0605 10.9889 74.0605 10.2908C74.0605 9.59157 73.8366 9.01453 73.3954 8.56594C72.9591 8.11707 72.4159 7.8912 71.78 7.8912C71.1393 7.8912 70.602 8.11707 70.1598 8.56594C69.7184 9.01453 69.4948 9.59157 69.4948 10.2908C69.4948 10.9889 69.7184 11.5657 70.1598 12.0145ZM73.9635 12.5175C73.3762 13.1239 72.648 13.4267 71.78 13.4267C70.907 13.4267 70.1791 13.1239 69.5918 12.5175C69.0061 11.912 68.7137 11.1695 68.7137 10.2908C68.7137 9.411 69.0061 8.66819 69.5918 8.06267C70.1791 7.45657 70.907 7.15381 71.78 7.15381C72.6435 7.15381 73.3711 7.45657 73.9587 8.06779C74.5491 8.67844 74.8415 9.41584 74.8415 10.2908C74.8415 11.1695 74.5491 11.912 73.9635 12.5175Z" fill="white"/>
<path d="M70.1598 12.0145L70.3966 11.7817L70.3966 11.7817L70.1598 12.0145ZM73.3954 12.0145L73.1586 11.7818L73.1571 11.7833L73.3954 12.0145ZM73.3954 8.56594L73.1573 8.79741L73.1587 8.79876L73.3954 8.56594ZM70.1598 8.56594L69.9232 8.3329L69.9231 8.33304L70.1598 8.56594ZM73.9635 12.5175L74.202 12.7485L74.2022 12.7484L73.9635 12.5175ZM69.5918 12.5175L69.3531 12.7484L69.3532 12.7485L69.5918 12.5175ZM69.5918 8.06267L69.3533 7.83159L69.3531 7.83182L69.5918 8.06267ZM73.9587 8.06779L73.7193 8.29792L73.72 8.2986L73.9587 8.06779ZM69.923 12.2474C70.4284 12.7613 71.0512 13.021 71.78 13.021V12.3569C71.2274 12.3569 70.7757 12.1673 70.3966 11.7817L69.923 12.2474ZM71.78 13.021C72.5031 13.021 73.133 12.7618 73.6338 12.2458L73.1571 11.7833C72.7851 12.1667 72.3288 12.3569 71.78 12.3569V13.021ZM73.6323 12.2473C74.1408 11.7298 74.3925 11.0664 74.3925 10.2908H73.7284C73.7284 10.9114 73.5323 11.4015 73.1586 11.7818L73.6323 12.2473ZM74.3925 10.2908C74.3925 9.51426 74.1409 8.85046 73.6322 8.33312L73.1587 8.79876C73.5322 9.1786 73.7284 9.66889 73.7284 10.2908H74.3925ZM73.6335 8.33448C73.1332 7.81974 72.5035 7.55914 71.78 7.55914V8.22327C72.3284 8.22327 72.785 8.41439 73.1573 8.7974L73.6335 8.33448ZM71.78 7.55914C71.0508 7.55914 70.4282 7.82034 69.9232 8.3329L70.3963 8.79899C70.7758 8.4138 71.2277 8.22327 71.78 8.22327V7.55914ZM69.9231 8.33304C69.414 8.85048 69.1627 9.51435 69.1627 10.2908H69.8268C69.8268 9.66879 70.0228 9.17859 70.3965 8.79884L69.9231 8.33304ZM69.1627 10.2908C69.1627 11.0663 69.4141 11.7298 69.923 12.2474L70.3966 11.7817C70.0227 11.4016 69.8268 10.9115 69.8268 10.2908H69.1627ZM73.7249 12.2865C73.2023 12.8261 72.5611 13.0946 71.78 13.0946V13.7587C72.7348 13.7587 73.55 13.4217 74.202 12.7485L73.7249 12.2865ZM71.78 13.0946C70.9936 13.0946 70.3528 12.826 69.8303 12.2865L69.3532 12.7485C70.0054 13.4218 70.8204 13.7587 71.78 13.7587V13.0946ZM69.8305 12.2867C69.3076 11.7461 69.0458 11.0876 69.0458 10.2908H68.3817C68.3817 11.2513 68.7046 12.0779 69.3531 12.7484L69.8305 12.2867ZM69.0458 10.2908C69.0458 9.49277 69.3077 8.83404 69.8305 8.29352L69.3531 7.83182C68.7046 8.50234 68.3817 9.32923 68.3817 10.2908H69.0458ZM69.8302 8.29374C70.3528 7.75452 70.9936 7.48587 71.78 7.48587V6.82175C70.8204 6.82175 70.0054 7.15862 69.3533 7.83159L69.8302 8.29374ZM71.78 7.48587C72.5561 7.48587 73.1964 7.75392 73.7193 8.29792L74.1981 7.83766C73.5459 7.15922 72.7309 6.82175 71.78 6.82175V7.48587ZM73.72 8.2986C74.2484 8.84516 74.5094 9.4989 74.5094 10.2908H75.1736C75.1736 9.33278 74.8498 8.51173 74.1974 7.83698L73.72 8.2986ZM74.5094 10.2908C74.5094 11.0876 74.2476 11.7461 73.7248 12.2867L74.2022 12.7484C74.8506 12.0779 75.1736 11.2513 75.1736 10.2908H74.5094Z" fill="white"/>
<path fill-rule="evenodd" clip-rule="evenodd" d="M75.918 13.2895V7.2915H76.8499L79.7457 11.956H79.7787L79.7457 10.8025V7.2915H80.5113V13.2895H79.7119L76.6797 8.39404H76.6459L76.6797 9.55183V13.2895H75.918Z" fill="white"/>
<path fill-rule="evenodd" clip-rule="evenodd" d="M75.918 13.2895V7.2915H76.8499L79.7457 11.956H79.7787L79.7457 10.8025V7.2915H80.5113V13.2895H79.7119L76.6797 8.39404H76.6459L76.6797 9.55183V13.2895H75.918Z" stroke="white" stroke-width="0.664125"/>
<path fill-rule="evenodd" clip-rule="evenodd" d="M107.071 30.2998H108.929V17.7931H107.071V30.2998ZM123.773 22.2978L121.644 27.7199H121.58L119.378 22.2978H117.38L120.688 29.8748L118.801 34.0896H120.737L125.834 22.2978H123.773ZM113.256 28.8777C112.65 28.8777 111.805 28.5749 111.805 27.8184C111.805 26.85 112.858 26.4792 113.77 26.4792C114.586 26.4792 114.968 26.6598 115.464 26.8996C115.318 28.0571 114.328 28.8777 113.256 28.8777ZM113.479 22.0238C112.141 22.0238 110.748 22.6193 110.176 23.9389L111.821 24.6333C112.174 23.9389 112.825 23.7142 113.512 23.7142C114.475 23.7142 115.449 24.2949 115.464 25.3223V25.4536C115.129 25.2585 114.411 24.9694 113.528 24.9694C111.757 24.9694 109.952 25.9509 109.952 27.7831C109.952 29.4595 111.403 30.5384 113.033 30.5384C114.28 30.5384 114.968 29.9714 115.401 29.3126H115.464V30.279H117.253V25.4823C117.253 23.2644 115.609 22.0238 113.479 22.0238ZM102.026 23.8216H99.3871V19.5327H102.026C103.409 19.5327 104.198 20.6897 104.198 21.6769C104.198 22.6441 103.409 23.8216 102.026 23.8216ZM101.977 17.7931H97.5334V30.2998H99.3871V25.5609H101.977C104.035 25.5609 106.053 24.0614 106.053 21.6769C106.053 19.2932 104.03 17.7931 101.977 17.7931ZM77.7556 28.8825C76.4753 28.8825 75.4038 27.8036 75.4038 26.3177C75.4038 24.8176 76.4753 23.7239 77.7556 23.7239C79.018 23.7239 80.0129 24.8176 80.0129 26.3177C80.0129 27.8036 79.018 28.8825 77.7556 28.8825ZM79.8812 22.9961H79.8183C79.4012 22.498 78.6057 22.0483 77.5971 22.0483C75.4813 22.0483 73.5466 23.9192 73.5466 26.3177C73.5466 28.7022 75.4813 30.5581 77.5971 30.5581C78.6057 30.5581 79.4012 30.1047 79.8183 29.5917H79.8812V30.2021C79.8812 31.8292 79.018 32.7031 77.6259 32.7031C76.4907 32.7031 75.786 31.8777 75.4958 31.1836L73.8804 31.8626C74.3461 32.991 75.5788 34.3784 77.6259 34.3784C79.8038 34.3784 81.642 33.0887 81.642 29.9477V22.3069H79.8812V22.9961ZM82.9234 30.2998H84.7818V17.7931H82.9234V30.2998ZM87.5168 26.1716C87.4684 24.5305 88.7831 23.6905 89.7237 23.6905C90.4611 23.6905 91.0876 24.0614 91.2956 24.5928L87.5168 26.1716ZM93.2797 24.7543C92.9303 23.803 91.8541 22.0483 89.6605 22.0483C87.4869 22.0483 85.678 23.7723 85.678 26.3037C85.678 28.6874 87.4684 30.5581 89.8688 30.5581C91.8105 30.5581 92.9303 29.367 93.391 28.6726L91.9511 27.7062C91.4697 28.4131 90.8153 28.8825 89.8688 28.8825C88.929 28.8825 88.2545 28.4487 87.8229 27.5926L93.4743 25.2388L93.2789 24.7543H93.2797ZM48.2672 23.3522V25.1608H52.555C52.4292 26.1716 52.094 26.9141 51.5802 27.4319C50.9541 28.0571 49.9793 28.7515 48.2672 28.7515C45.6278 28.7515 43.5614 26.6065 43.5614 23.9489C43.5614 21.2909 45.6278 19.1462 48.2672 19.1462C49.6939 19.1462 50.7324 19.7082 51.4981 20.4359L52.7641 19.1619C51.6915 18.1314 50.2659 17.3394 48.2672 17.3394C44.6483 17.3394 41.6072 20.3049 41.6072 23.9489C41.6072 27.5926 44.6483 30.5581 48.2672 30.5581C50.2222 30.5581 51.6915 29.9133 52.8474 28.7022C54.0301 27.5108 54.3988 25.8344 54.3988 24.4812C54.3988 24.0614 54.3639 23.6746 54.3021 23.3522H48.2672ZM59.2751 28.8825C57.9937 28.8825 56.8881 27.8184 56.8881 26.3037C56.8881 24.7691 57.9937 23.7239 59.2751 23.7239C60.5556 23.7239 61.6567 24.7691 61.6567 26.3037C61.6567 27.8184 60.5556 28.8825 59.2751 28.8825ZM59.2751 22.0483C56.9367 22.0483 55.0348 23.8364 55.0348 26.3037C55.0348 28.7515 56.9367 30.5581 59.2751 30.5581C61.6115 30.5581 63.5143 28.7515 63.5143 26.3037C63.5143 23.8364 61.6115 22.0483 59.2751 22.0483ZM68.525 28.8825C67.2447 28.8825 66.143 27.8184 66.143 26.3037C66.143 24.7691 67.2447 23.7239 68.525 23.7239C69.8055 23.7239 70.9119 24.7691 70.9119 26.3037C70.9119 27.8184 69.8055 28.8825 68.525 28.8825ZM68.525 22.0483C66.1914 22.0483 64.2858 23.8364 64.2858 26.3037C64.2858 28.7515 66.1914 30.5581 68.525 30.5581C70.8633 30.5581 72.77 28.7515 72.77 26.3037C72.77 23.8364 70.8633 22.0483 68.525 22.0483Z" fill="white"/>
</g>
<path fill-rule="evenodd" clip-rule="evenodd" d="M31.6445 17.4122C33.6713 18.5411 33.6713 21.4566 31.6446 22.5855L13.9471 32.4437C11.9735 33.5431 9.54532 32.1162 9.54532 29.857L9.54532 10.141C9.54532 7.88187 11.9735 6.45498 13.947 7.5543L31.6445 17.4122Z" fill="url(#paint0_linear_0_120)"/>
<mask id="mask3_0_120" style="mask-type:alpha" maskUnits="userSpaceOnUse" x="9" y="7" width="25" height="26">
<path fill-rule="evenodd" clip-rule="evenodd" d="M31.6445 17.4122C33.6713 18.5411 33.6713 21.4566 31.6446 22.5855L13.9471 32.4437C11.9735 33.5431 9.54532 32.1162 9.54532 29.857L9.54532 10.141C9.54532 7.88187 11.9735 6.45498 13.947 7.5543L31.6445 17.4122Z" fill="white"/>
</mask>
<g mask="url(#mask3_0_120)">
<path fill-rule="evenodd" clip-rule="evenodd" d="M9.77935 5.98682L23.3643 19.7737L9.60388 34.1056L9.77935 5.98682Z" fill="url(#paint1_linear_0_120)"/>
<path fill-rule="evenodd" clip-rule="evenodd" d="M6.98572 3.14844L23.3626 19.7776L28.2316 15.0347L6.98572 3.14844Z" fill="url(#paint2_linear_0_120)"/>
<path fill-rule="evenodd" clip-rule="evenodd" d="M23.3649 19.7744L30.8189 27.4462L8.55078 35.1179L23.3649 19.7744Z" fill="url(#paint3_linear_0_120)"/>
</g>
<defs>
<linearGradient id="paint0_linear_0_120" x1="34.693" y1="14.0801" x2="25.4975" y2="14.0801" gradientUnits="userSpaceOnUse">
<stop stop-color="#FBDA09"/>
<stop offset="1" stop-color="#FFBC00"/>
</linearGradient>
<linearGradient id="paint1_linear_0_120" x1="10.9381" y1="32.1735" x2="21.0324" y2="30.7913" gradientUnits="userSpaceOnUse">
<stop stop-color="#01E2FF"/>
<stop offset="1" stop-color="#01C4FF"/>
</linearGradient>
<linearGradient id="paint2_linear_0_120" x1="4.54698" y1="11.7743" x2="14.8044" y2="24.8754" gradientUnits="userSpaceOnUse">
<stop stop-color="#28D781"/>
<stop offset="1" stop-color="#02F076"/>
</linearGradient>
<linearGradient id="paint3_linear_0_120" x1="16.9261" y1="17.5097" x2="8.11937" y2="32.1519" gradientUnits="userSpaceOnUse">
<stop stop-color="#F2414E"/>
<stop offset="1" stop-color="#E02554"/>
</linearGradient>
</defs>
</svg>
