<svg width="87" height="36" viewBox="0 0 87 36" fill="none" xmlns="http://www.w3.org/2000/svg">
<rect width="87" height="36" rx="2" fill="#F5A623"/>
<g clip-path="url(#clip0_0_319)">
<path d="M69.5 18.5L69.2289 18.1852L65.1725 13.5L64.5 14.1296L68.2852 18.5L64.5 22.8704L65.1725 23.5L69.2289 18.8148L69.5 18.5Z" fill="white" stroke="white"/>
<path d="M26.478 13.032V23H25.134L19.758 16.014V23H18.078V13.032H19.422L24.784 20.004V13.032H26.478ZM29.1464 13.032H35.8104V14.46H30.9104V17.218H35.5164V18.646H30.9104V21.572H35.8104V23H29.1464V13.032ZM46.3048 23H44.1908L41.4888 19.276L38.7868 23H36.6728L40.4668 17.918L36.7988 13.032H38.9128L41.4888 16.602L44.0928 13.032H46.1928L42.5108 17.932L46.3048 23ZM50.1074 14.516H46.8594V13.032H55.1894V14.516H51.9274V23H50.1074V14.516Z" fill="white"/>
</g>
<defs>
<clipPath id="clip0_0_319">
<rect width="53" height="18" fill="white" transform="translate(17 9)"/>
</clipPath>
</defs>
</svg>
