<svg width="87" height="36" viewBox="0 0 87 36" fill="none" xmlns="http://www.w3.org/2000/svg">
<rect width="87" height="36" rx="2" fill="#F5A623"/>
<g clip-path="url(#clip0_0_324)">
<path d="M17.5 18.5L17.7711 18.1852L21.8275 13.5L22.5 14.1296L18.7148 18.5L22.5 22.8704L21.8275 23.5L17.7711 18.8148L17.5 18.5Z" fill="white" stroke="white"/>
<path d="M31.078 13.032H35.404C36.4773 13.032 37.3127 13.2933 37.91 13.816C38.5073 14.3293 38.806 15.034 38.806 15.93C38.806 16.826 38.5027 17.5353 37.896 18.058C37.2987 18.5807 36.468 18.842 35.404 18.842H32.884V23H31.078V13.032ZM35.194 17.442C35.8193 17.442 36.2907 17.316 36.608 17.064C36.9347 16.8027 37.098 16.4293 37.098 15.944C37.098 15.4493 36.9393 15.076 36.622 14.824C36.3047 14.5627 35.8287 14.432 35.194 14.432H32.884V17.442H35.194ZM49.1062 23H47.2022L45.9282 19.682C45.8162 19.374 45.6436 19.1593 45.4102 19.038C45.1769 18.9167 44.8736 18.856 44.5002 18.856H42.6942V23H40.9022V13.032H45.1722C46.3016 13.032 47.1602 13.2793 47.7482 13.774C48.3362 14.2687 48.6302 14.978 48.6302 15.902C48.6302 16.5647 48.4529 17.1293 48.0982 17.596C47.7529 18.0533 47.2582 18.38 46.6142 18.576C47.2022 18.6973 47.6269 19.108 47.8882 19.808L49.1062 23ZM44.9202 17.456C45.6016 17.456 46.1056 17.33 46.4322 17.078C46.7589 16.826 46.9222 16.4433 46.9222 15.93C46.9222 15.426 46.7589 15.0527 46.4322 14.81C46.1149 14.558 45.6109 14.432 44.9202 14.432H42.6662V17.456H44.9202ZM51.2323 13.032H57.8963V14.46H52.9963V17.218H57.6023V18.646H52.9963V21.572H57.8963V23H51.2323V13.032ZM69.2005 13.032L64.7625 23H63.2925L58.8545 13.032H60.7305L64.0485 20.732L67.3665 13.032H69.2005Z" fill="white"/>
</g>
<defs>
<clipPath id="clip0_0_324">
<rect width="53" height="18" fill="white" transform="matrix(-1 0 0 1 70 9)"/>
</clipPath>
</defs>
</svg>
